<svg width="42" height="42" viewBox="0 0 42 42" fill="none" xmlns="http://www.w3.org/2000/svg">
<path d="M14.0542 31.4626L17.4704 28.0464H20.8866L23.2096 25.7234C25.5841 26.5507 28.1692 26.5474 30.5416 25.7141C32.914 24.8808 34.9333 23.2669 36.269 21.1365C37.6047 19.006 38.1777 16.4853 37.8941 13.9868C37.6105 11.4884 36.4873 9.16013 34.7081 7.38321C32.929 5.6063 30.5994 4.48594 28.1005 4.20551C25.6017 3.92508 23.0817 4.50119 20.9529 5.83954C18.8242 7.17789 17.2128 9.19922 16.3825 11.5727C15.5522 13.9462 15.5521 16.5312 16.3824 18.9047L3.80566 31.4626V38.295H10.638L14.0542 34.8788V31.4626Z" stroke="#828282" stroke-width="3.41619" stroke-linecap="round" stroke-linejoin="round"/>
<path d="M29.4268 14.3818C30.3702 14.3818 31.1349 13.617 31.1349 12.6737C31.1349 11.7303 30.3702 10.9656 29.4268 10.9656C28.4835 10.9656 27.7188 11.7303 27.7188 12.6737C27.7188 13.617 28.4835 14.3818 29.4268 14.3818Z" stroke="#828282" stroke-width="3.41619" stroke-linecap="round" stroke-linejoin="round"/>
</svg>
