<svg width="27" height="26" viewBox="0 0 27 26" fill="none" xmlns="http://www.w3.org/2000/svg">
<g clip-path="url(#clip0_81_1605)">
<path d="M13.6666 1.55762C11.4144 1.55762 9.21278 2.22547 7.34015 3.47672C5.46752 4.72797 4.00798 6.50642 3.14611 8.58718C2.28423 10.6679 2.05872 12.9575 2.49811 15.1665C2.93749 17.3754 4.02202 19.4044 5.61456 20.9969C7.2071 22.5895 9.23612 23.674 11.445 24.1134C13.654 24.5528 15.9436 24.3273 18.0243 23.4654C20.1051 22.6035 21.8835 21.144 23.1348 19.2713C24.386 17.3987 25.0539 15.1971 25.0539 12.9449C25.0539 9.92481 23.8542 7.02841 21.7186 4.89288C19.5831 2.75735 16.6867 1.55762 13.6666 1.55762ZM13.6666 22.9088C11.6959 22.9088 9.76951 22.3244 8.13096 21.2296C6.49241 20.1347 5.21531 18.5786 4.46117 16.7579C3.70703 14.9373 3.50971 12.9339 3.89417 11.001C4.27862 9.06825 5.22759 7.29285 6.62106 5.89938C8.01454 4.50591 9.78993 3.55694 11.7227 3.17248C13.6555 2.78802 15.6589 2.98534 17.4796 3.73948C19.3003 4.49363 20.8564 5.77072 21.9513 7.40927C23.0461 9.04782 23.6305 10.9742 23.6305 12.9449C23.6305 15.5875 22.5807 18.1218 20.7121 19.9904C18.8435 21.859 16.3092 22.9088 13.6666 22.9088Z" fill="#333333"/>
<path d="M13.8739 6.48314C13.1027 6.47039 12.3381 6.62767 11.6345 6.94379C10.9309 7.25991 10.3056 7.72713 9.80294 8.31222C9.73311 8.37694 9.67698 8.455 9.63786 8.5418C9.59874 8.62859 9.57743 8.72236 9.5752 8.81753C9.57515 8.90535 9.59277 8.99227 9.627 9.07313C9.66123 9.154 9.71138 9.22715 9.77446 9.28824C9.83754 9.34933 9.91226 9.3971 9.99418 9.42873C10.0761 9.46035 10.1636 9.47517 10.2513 9.4723C10.4393 9.46764 10.6191 9.39421 10.7566 9.26591C11.137 8.82015 11.6094 8.4621 12.1414 8.21638C12.6734 7.97066 13.2523 7.8431 13.8383 7.8425C15.5179 7.8425 16.5641 8.92429 16.5641 10.2694V10.305C16.5641 11.8779 15.3115 12.7533 13.333 12.9027C13.2529 12.9058 13.1743 12.9258 13.1025 12.9613C13.0306 12.9969 12.9671 13.0472 12.916 13.109C12.8649 13.1709 12.8275 13.2428 12.8062 13.32C12.7848 13.3973 12.78 13.4782 12.7921 13.5575C12.7921 13.5575 12.7921 15.2086 12.7921 15.5147C12.8098 15.6908 12.8925 15.8541 13.0241 15.9725C13.1557 16.091 13.3268 16.1561 13.5038 16.1552H13.5821C13.7583 16.1375 13.9215 16.0548 14.0399 15.9232C14.1584 15.7916 14.2235 15.6206 14.2226 15.4435V13.9774C16.3578 13.6785 18.0872 12.554 18.0872 10.2196V10.184C18.0658 8.04889 16.4005 6.48314 13.8739 6.48314Z" fill="#333333"/>
<path d="M13.5097 19.6709C14.0011 19.6709 14.3994 19.2726 14.3994 18.7812C14.3994 18.2899 14.0011 17.8916 13.5097 17.8916C13.0184 17.8916 12.6201 18.2899 12.6201 18.7812C12.6201 19.2726 13.0184 19.6709 13.5097 19.6709Z" fill="#333333"/>
</g>
<defs>
<clipPath id="clip0_81_1605">
<rect width="25.6214" height="25.6214" fill="white" transform="translate(0.856445 0.134521)"/>
</clipPath>
</defs>
</svg>
