<svg width="42" height="42" viewBox="0 0 42 42" fill="none" xmlns="http://www.w3.org/2000/svg">
<path d="M11.3201 14.5246C11.5919 14.5246 11.8526 14.4166 12.0448 14.2244C12.237 14.0322 12.345 13.7716 12.345 13.4997V7.00899C12.345 6.73718 12.453 6.4765 12.6452 6.2843C12.8374 6.09211 13.098 5.98413 13.3698 5.98413H28.4011C28.5356 5.98413 28.6689 6.01064 28.7933 6.06214C28.9176 6.11365 29.0306 6.18914 29.1257 6.2843C29.2209 6.37947 29.2964 6.49245 29.3479 6.61679C29.3994 6.74113 29.4259 6.8744 29.4259 7.00899V13.4997C29.4259 13.7716 29.5339 14.0322 29.7261 14.2244C29.9183 14.4166 30.179 14.5246 30.4508 14.5246H33.5253C33.6599 14.5246 33.7932 14.5511 33.9175 14.6026C34.0419 14.6541 34.1549 14.7296 34.25 14.8248C34.3452 14.9199 34.4207 15.0329 34.4722 15.1573C34.5237 15.2816 34.5502 15.4149 34.5502 15.5495V35.705C34.5502 35.8395 34.5237 35.9728 34.4722 36.0972C34.4207 36.2215 34.3452 36.3345 34.25 36.4296C34.1549 36.5248 34.0419 36.6003 33.9175 36.6518C33.7932 36.7033 33.6599 36.7298 33.5253 36.7298H8.24556C7.97375 36.7298 7.71307 36.6218 7.52088 36.4296C7.32868 36.2374 7.2207 35.9768 7.2207 35.705V15.5495C7.2207 15.2776 7.32868 15.017 7.52088 14.8248C7.71307 14.6326 7.97375 14.5246 8.24556 14.5246H11.3201V14.5246Z" stroke="#828282" stroke-width="2.56214"/>
<path d="M17.4553 14.5246H20.8714M24.2876 14.5246H20.8714M20.8714 14.5246V11.1084M20.8714 14.5246V17.9408M27.7175 29.9145L27.7346 29.8957M27.7175 23.0821L27.7346 23.0633M20.8851 23.0821L20.9022 23.0633M14.0527 23.0821L14.0698 23.0633M14.0527 29.9145L14.0698 29.8957M20.8851 29.9145L20.9022 29.8957" stroke="#828282" stroke-width="2.56214" stroke-linecap="round" stroke-linejoin="round"/>
</svg>
