<svg width="42" height="42" viewBox="0 0 42 42" fill="none" xmlns="http://www.w3.org/2000/svg">
<path d="M31.1354 29.7883C32.5504 29.7883 33.6975 28.6412 33.6975 27.2262C33.6975 25.8112 32.5504 24.6641 31.1354 24.6641C29.7204 24.6641 28.5732 25.8112 28.5732 27.2262C28.5732 28.6412 29.7204 29.7883 31.1354 29.7883Z" fill="#828282"/>
<path d="M31.1337 40.0369L25.0115 31.8355C23.9991 30.512 23.4495 28.8925 23.4473 27.2262C23.4473 25.1877 24.2571 23.2326 25.6986 21.7911C27.14 20.3496 29.0951 19.5398 31.1337 19.5398C33.1723 19.5398 35.1273 20.3496 36.5688 21.7911C38.0103 23.2326 38.8201 25.1877 38.8201 27.2262C38.8173 28.8952 38.2659 30.5171 37.2508 31.8419L31.1337 40.0369ZM31.1337 22.1019C29.7752 22.1036 28.4728 22.6441 27.5121 23.6047C26.5515 24.5653 26.0111 25.8677 26.0094 27.2262C26.0136 28.3373 26.3827 29.4161 27.0599 30.2969L31.1337 35.7543L35.2024 30.3033C35.8822 29.4212 36.2531 28.3399 36.258 27.2262C36.2563 25.8677 35.7158 24.5653 34.7552 23.6047C33.7946 22.6441 32.4922 22.1036 31.1337 22.1019Z" fill="#828282"/>
<path d="M32.4153 6.72895H28.5721V5.44788C28.5701 4.76898 28.2995 4.11847 27.8195 3.63842C27.3394 3.15836 26.6889 2.88777 26.01 2.88574H15.7614C15.0825 2.88777 14.432 3.15836 13.952 3.63842C13.4719 4.11847 13.2013 4.76898 13.1993 5.44788V6.72895H9.35609C8.67719 6.73098 8.02667 7.00157 7.54662 7.48163C7.06656 7.96168 6.79597 8.61219 6.79395 9.29109V36.1936C6.79597 36.8725 7.06656 37.523 7.54662 38.003C8.02667 38.4831 8.67719 38.7537 9.35609 38.7557H20.8857V36.1936H9.35609V9.29109H13.1993V13.1343H28.5721V9.29109H32.4153V15.6964H34.9775V9.29109C34.9755 8.61219 34.7049 7.96168 34.2248 7.48163C33.7448 7.00157 33.0942 6.73098 32.4153 6.72895ZM26.01 10.5722H15.7614V5.44788H26.01V10.5722Z" fill="#828282"/>
</svg>
