<svg width="42" height="42" viewBox="0 0 42 42" fill="none" xmlns="http://www.w3.org/2000/svg">
<path d="M14.0541 10.6447C14.0541 9.73867 14.414 8.86975 15.0546 8.22909C15.6953 7.58843 16.5642 7.22852 17.4702 7.22852H24.3026C25.2086 7.22852 26.0776 7.58843 26.7182 8.22909C27.3589 8.86975 27.7188 9.73867 27.7188 10.6447V14.0609H31.135C32.041 14.0609 32.9099 14.4208 33.5506 15.0615C34.1913 15.7021 34.5512 16.571 34.5512 17.4771V24.3095C34.5512 25.2155 34.1913 26.0844 33.5506 26.7251C32.9099 27.3657 32.041 27.7256 31.135 27.7256H27.7188V31.1418C27.7188 32.0479 27.3589 32.9168 26.7182 33.5574C26.0776 34.1981 25.2086 34.558 24.3026 34.558H17.4702C16.5642 34.558 15.6953 34.1981 15.0546 33.5574C14.414 32.9168 14.0541 32.0479 14.0541 31.1418V27.7256H10.6379C9.73184 27.7256 8.86292 27.3657 8.22226 26.7251C7.5816 26.0844 7.22168 25.2155 7.22168 24.3095V17.4771C7.22168 16.571 7.5816 15.7021 8.22226 15.0615C8.86292 14.4208 9.73184 14.0609 10.6379 14.0609H14.0541V10.6447ZM24.3026 10.6447H17.4702V15.769C17.4702 16.222 17.2903 16.6565 16.97 16.9768C16.6496 17.2971 16.2152 17.4771 15.7621 17.4771H10.6379V24.3095H15.7621C16.2152 24.3095 16.6496 24.4894 16.97 24.8097C17.2903 25.1301 17.4702 25.5645 17.4702 26.0175V31.1418H24.3026V26.0175C24.3026 25.5645 24.4826 25.1301 24.8029 24.8097C25.1232 24.4894 25.5577 24.3095 26.0107 24.3095H31.135V17.4771H26.0107C25.5577 17.4771 25.1232 17.2971 24.8029 16.9768C24.4826 16.6565 24.3026 16.222 24.3026 15.769V10.6447Z" fill="#828282"/>
</svg>
