<svg width="42" height="42" viewBox="0 0 42 42" fill="none" xmlns="http://www.w3.org/2000/svg">
<path d="M2.95117 12.9582C2.95117 11.4293 3.55853 9.96295 4.63965 8.88183C5.72076 7.80072 7.18706 7.19336 8.71599 7.19336H33.0563C34.5852 7.19336 36.0515 7.80072 37.1327 8.88183C38.2138 9.96295 38.8211 11.4293 38.8211 12.9582V29.6121C38.8211 31.141 38.2138 32.6073 37.1327 33.6884C36.0515 34.7695 34.5852 35.3769 33.0563 35.3769H8.71599C7.18706 35.3769 5.72076 34.7695 4.63965 33.6884C3.55853 32.6073 2.95117 31.141 2.95117 29.6121V12.9582ZM8.71599 9.7555C7.86658 9.7555 7.05197 10.0929 6.45135 10.6935C5.85074 11.2942 5.51331 12.1088 5.51331 12.9582V14.8798H36.259V12.9582C36.259 12.1088 35.9216 11.2942 35.3209 10.6935C34.7203 10.0929 33.9057 9.7555 33.0563 9.7555H8.71599ZM5.51331 29.6121C5.51331 30.4615 5.85074 31.2761 6.45135 31.8767C7.05197 32.4773 7.86658 32.8148 8.71599 32.8148H33.0563C33.9057 32.8148 34.7203 32.4773 35.3209 31.8767C35.9216 31.2761 36.259 30.4615 36.259 29.6121V17.4419H5.51331V29.6121ZM27.2915 25.1283H31.1347C31.4745 25.1283 31.8003 25.2633 32.0406 25.5036C32.2808 25.7438 32.4158 26.0696 32.4158 26.4094C32.4158 26.7492 32.2808 27.075 32.0406 27.3153C31.8003 27.5555 31.4745 27.6905 31.1347 27.6905H27.2915C26.9517 27.6905 26.6259 27.5555 26.3856 27.3153C26.1454 27.075 26.0104 26.7492 26.0104 26.4094C26.0104 26.0696 26.1454 25.7438 26.3856 25.5036C26.6259 25.2633 26.9517 25.1283 27.2915 25.1283Z" fill="#828282"/>
</svg>
