<svg width="42" height="42" viewBox="0 0 42 42" fill="none" xmlns="http://www.w3.org/2000/svg">
<path d="M26.0104 32.9239C27.4673 33.3469 28.977 33.5608 30.4941 33.5593C32.934 33.5628 35.3421 33.0065 37.5332 31.9332C37.5979 30.4022 37.1619 28.8919 36.291 27.631C35.4202 26.3702 34.162 25.4277 32.7073 24.9462C31.2526 24.4648 29.6805 24.4707 28.2295 24.9631C26.7784 25.4555 25.5274 26.4075 24.6661 27.6749M26.0104 32.9239V32.9187C26.0104 31.0176 25.5236 29.2293 24.6678 27.6749M26.0104 32.9239V33.1049C22.7231 35.0848 18.957 36.1279 15.1196 36.1214C11.138 36.1214 7.41265 35.0197 4.23218 33.1049L4.23047 32.9187C4.22916 30.5009 5.03261 28.1513 6.51416 26.2405C7.99571 24.3298 10.0711 22.9664 12.4131 22.3655C14.7551 21.7645 17.2305 21.9601 19.449 22.9214C21.6675 23.8828 23.503 25.5551 24.6661 27.6749M20.8861 11.1405C20.8861 12.6695 20.2787 14.1358 19.1976 15.2169C18.1165 16.298 16.6502 16.9054 15.1213 16.9054C13.5923 16.9054 12.126 16.298 11.0449 15.2169C9.96382 14.1358 9.35646 12.6695 9.35646 11.1405C9.35646 9.61162 9.96382 8.14532 11.0449 7.06421C12.126 5.9831 13.5923 5.37573 15.1213 5.37573C16.6502 5.37573 18.1165 5.9831 19.1976 7.06421C20.2787 8.14532 20.8861 9.61162 20.8861 11.1405V11.1405ZM34.9779 14.9838C34.9779 16.1729 34.5055 17.3134 33.6646 18.1542C32.8237 18.9951 31.6833 19.4675 30.4941 19.4675C29.3049 19.4675 28.1645 18.9951 27.3236 18.1542C26.4828 17.3134 26.0104 16.1729 26.0104 14.9838C26.0104 13.7946 26.4828 12.6541 27.3236 11.8133C28.1645 10.9724 29.3049 10.5 30.4941 10.5C31.6833 10.5 32.8237 10.9724 33.6646 11.8133C34.5055 12.6541 34.9779 13.7946 34.9779 14.9838V14.9838Z" stroke="#828282" stroke-width="2.56214" stroke-linecap="round" stroke-linejoin="round"/>
</svg>
