<svg width="150" height="150" viewBox="0 0 150 150" fill="none" xmlns="http://www.w3.org/2000/svg">
<g opacity="0.9">
<path opacity="0.5" d="M12.5 71.875C12.5 51.3312 12.5 41.0562 18.175 34.1375C19.2131 32.8728 20.3728 31.7131 21.6375 30.675C28.5625 25 38.825 25 59.375 25C79.9187 25 90.1937 25 97.1125 30.675C98.3772 31.7131 99.5369 32.8728 100.575 34.1375C106.25 41.0625 106.25 51.325 106.25 71.875V78.125C106.25 98.6687 106.25 108.944 100.575 115.862C99.5369 117.127 98.3772 118.287 97.1125 119.325C90.1875 125 79.925 125 59.375 125C38.8313 125 28.5562 125 21.6375 119.325C20.3728 118.287 19.2131 117.127 18.175 115.862C12.5 108.937 12.5 98.675 12.5 78.125V71.875Z" fill="#017BFC"/>
<path d="M106.25 59.3749L110.363 57.3186C122.525 51.2374 128.612 48.1936 133.05 50.9436C137.5 53.6936 137.5 60.4937 137.5 74.0874V75.9124C137.5 89.5124 137.5 96.3062 133.056 99.0562C128.606 101.806 122.525 98.7624 110.369 92.6812L106.25 90.6249V59.3749Z" fill="#017BFC"/>
</g>
</svg>
