<svg width="56" height="56" viewBox="0 0 56 56" fill="none" xmlns="http://www.w3.org/2000/svg">
<path d="M51.9625 32.8899L52.0718 32.357C52.3284 30.8607 52.2061 29.3239 51.7162 27.887C51.2263 26.4501 50.3843 25.1587 49.2671 24.1308C44.7201 19.9631 37.7101 17.9338 28.2815 17.9338C18.8699 17.9338 11.8667 19.9562 7.32315 24.1103C6.12991 25.2044 5.25035 26.5971 4.77532 28.1447C4.30028 29.6923 4.24699 31.3387 4.62094 32.9138L5.08896 34.885C5.45115 36.4415 6.36751 37.8131 7.66692 38.7435C8.96633 39.6738 10.56 40.0995 12.1502 39.9409L16.3248 39.5139C17.6952 39.3691 18.9857 38.7986 20.0151 37.8826C21.0445 36.9665 21.761 35.751 22.064 34.4067L23.041 30.1365L23.0752 30.0408L23.2938 29.9247C23.4441 29.8495 23.6764 29.747 24.0112 29.6445C24.9678 29.3507 26.4025 29.1902 28.2815 29.1902C30.8265 29.1902 32.5312 29.4874 33.2998 29.9622C33.4365 30.0442 33.5321 30.1809 33.5697 30.338L34.4989 34.4033C34.8023 35.7485 35.5198 36.9648 36.5505 37.881C37.5813 38.7972 38.8734 39.367 40.2449 39.5105L44.44 39.9409C46.034 40.0986 47.6308 39.6698 48.9313 38.7346C50.2318 37.7995 51.1467 36.4223 51.5047 34.861L51.9625 32.8899ZM28.2815 21.555C36.8971 21.555 43.0735 23.3417 46.8518 26.8091C48.1944 28.0389 48.8264 29.8632 48.5497 31.6532L48.4711 32.0666L48.0133 34.0343C47.8514 34.7447 47.4358 35.3715 46.8446 35.7973C46.2534 36.2231 45.5272 36.4186 44.8021 36.3471L40.6071 35.9166C39.9837 35.8511 39.3966 35.5917 38.9284 35.175C38.4602 34.7583 38.1345 34.2052 37.9971 33.5936L37.0645 29.5284C36.94 28.9829 36.7083 28.4675 36.3828 28.0124C36.0573 27.5573 35.6445 27.1715 35.1685 26.8774C33.6995 25.9721 31.4346 25.5793 28.2815 25.5793C23.4851 25.5793 20.5814 26.4709 19.6829 28.8793L19.5804 29.2073L18.5692 33.5971C18.4319 34.2086 18.1062 34.7617 17.638 35.1784C17.1697 35.5951 16.5826 35.8545 15.9593 35.9201L11.7881 36.3471C11.0649 36.4191 10.3403 36.2255 9.74938 35.8025C9.15848 35.3794 8.74172 34.7558 8.57689 34.048L8.10887 32.0769C7.88472 31.1318 7.91694 30.144 8.2022 29.2155C8.48747 28.2871 9.01543 27.4516 9.73156 26.7954C13.5133 23.3314 19.6795 21.5516 28.2815 21.5516V21.555Z" fill="white"/>
</svg>
