<svg width="32" height="32" viewBox="0 0 32 32" fill="none" xmlns="http://www.w3.org/2000/svg">
<path d="M18.4197 25.1497C23.2506 25.1497 25.6667 25.1497 27.1669 23.6483C28.6683 22.1482 28.6683 19.7321 28.6683 14.9011C28.6683 10.0702 28.6683 7.65414 27.1669 6.154C25.6667 4.65259 23.2506 4.65259 18.4197 4.65259H13.2954C8.46452 4.65259 6.04842 4.65259 4.54829 6.154C3.04687 7.65414 3.04688 10.0702 3.04688 14.9011C3.04688 19.7321 3.04687 22.1482 4.54829 23.6483C5.38483 24.4861 6.50576 24.8563 8.17115 25.019" stroke="#828282" stroke-width="1.42341" stroke-linecap="round" stroke-linejoin="round"/>
<path d="M15.8581 14.9014V14.9142M10.7338 14.9014V14.9142M20.9824 14.9014V14.9142M18.4202 25.1499C16.8368 25.1499 15.092 25.7905 13.4996 26.6168C10.9401 27.9452 9.66026 28.6101 9.02998 28.1861C8.39969 27.7633 8.51883 26.4502 8.75839 23.8253L8.81219 23.2283" stroke="#828282" stroke-width="1.42341" stroke-linecap="round"/>
</svg>
