<svg width="18" height="18" viewBox="0 0 18 18" fill="none" xmlns="http://www.w3.org/2000/svg">
<g clip-path="url(#clip0_81_1311)">
<path d="M16.7809 4.48153L13.9957 1.68215C13.8117 1.49904 13.5626 1.39624 13.303 1.39624C13.0434 1.39624 12.7943 1.49904 12.6103 1.68215L2.73655 11.5416L1.83506 15.4323C1.80396 15.5745 1.80503 15.7219 1.83818 15.8637C1.87133 16.0054 1.93573 16.138 2.02668 16.2517C2.11763 16.3654 2.23282 16.4573 2.36385 16.5207C2.49487 16.5842 2.63842 16.6176 2.784 16.6185C2.85184 16.6253 2.92019 16.6253 2.98802 16.6185L6.92138 15.717L16.7809 5.86698C16.964 5.68293 17.0668 5.43387 17.0668 5.17425C17.0668 4.91463 16.964 4.66557 16.7809 4.48153ZM6.44691 14.8629L2.76028 15.6363L3.60009 12.0209L10.9876 4.66182L13.8344 7.50865L6.44691 14.8629ZM14.4702 6.82066L11.6234 3.97384L13.2745 2.33217L16.0739 5.179L14.4702 6.82066Z" fill="#BDBDBD"/>
</g>
<defs>
<clipPath id="clip0_81_1311">
<rect width="17.0809" height="17.0809" fill="white" transform="translate(0.710938 0.533936)"/>
</clipPath>
</defs>
</svg>
