<svg width="18" height="19" viewBox="0 0 18 19" fill="none" xmlns="http://www.w3.org/2000/svg">
<g clip-path="url(#clip0_81_1315)">
<path d="M8.55804 16.9746C6.57611 16.9746 4.67534 16.1872 3.2739 14.7858C1.87246 13.3843 1.08514 11.4836 1.08514 9.50165C1.08514 7.51971 1.87246 5.61895 3.2739 4.2175C4.67534 2.81606 6.57611 2.02874 8.55804 2.02874C10.54 2.02874 12.4407 2.81606 13.8422 4.2175C15.2436 5.61895 16.031 7.51971 16.031 9.50165C16.031 11.4836 15.2436 13.3843 13.8422 14.7858C12.4407 16.1872 10.54 16.9746 8.55804 16.9746ZM8.55804 18.0421C10.8231 18.0421 12.9954 17.1423 14.5971 15.5407C16.1987 13.939 17.0985 11.7667 17.0985 9.50165C17.0985 7.23658 16.1987 5.06427 14.5971 3.46263C12.9954 1.86098 10.8231 0.961182 8.55804 0.961182C6.29297 0.961182 4.12067 1.86098 2.51902 3.46263C0.917375 5.06427 0.0175781 7.23658 0.0175781 9.50165C0.0175781 11.7667 0.917375 13.939 2.51902 15.5407C4.12067 17.1423 6.29297 18.0421 8.55804 18.0421Z" fill="#BDBDBD"/>
<path d="M4.59207 11.1749C4.71467 11.1041 4.86036 11.0849 4.9971 11.1215C5.13384 11.1582 5.25043 11.2476 5.32121 11.3702C5.64907 11.9385 6.12087 12.4104 6.68911 12.7384C7.25734 13.0664 7.90196 13.2388 8.55805 13.2384C9.21414 13.2388 9.85876 13.0664 10.427 12.7384C10.9952 12.4104 11.467 11.9385 11.7949 11.3702C11.8297 11.309 11.8762 11.2553 11.9319 11.2122C11.9875 11.1691 12.0511 11.1374 12.1191 11.1189C12.187 11.1005 12.2579 11.0956 12.3277 11.1047C12.3975 11.1138 12.4648 11.1366 12.5258 11.1718C12.5868 11.207 12.6402 11.2539 12.6829 11.3098C12.7257 11.3657 12.757 11.4296 12.775 11.4976C12.793 11.5657 12.7973 11.6366 12.7878 11.7064C12.7782 11.7761 12.755 11.8433 12.7194 11.904C12.2978 12.6346 11.6913 13.2412 10.9608 13.6629C10.2302 14.0846 9.40153 14.3064 8.55805 14.306C7.71457 14.3064 6.88586 14.0846 6.15534 13.6629C5.42482 13.2412 4.81826 12.6346 4.39671 11.904C4.32593 11.7814 4.30675 11.6357 4.34338 11.499C4.38002 11.3622 4.46948 11.2456 4.59207 11.1749ZM7.49049 7.90065C7.49049 8.78459 7.01222 9.50199 6.42293 9.50199C5.83364 9.50199 5.35537 8.78459 5.35537 7.90065C5.35537 7.01672 5.83364 6.29932 6.42293 6.29932C7.01222 6.29932 7.49049 7.01672 7.49049 7.90065ZM11.7607 7.90065C11.7607 8.78459 11.2825 9.50199 10.6932 9.50199C10.1039 9.50199 9.62561 8.78459 9.62561 7.90065C9.62561 7.01672 10.1039 6.29932 10.6932 6.29932C11.2825 6.29932 11.7607 7.01672 11.7607 7.90065Z" fill="#BDBDBD"/>
</g>
<defs>
<clipPath id="clip0_81_1315">
<rect width="17.0809" height="17.0809" fill="white" transform="translate(0.0175781 0.960938)"/>
</clipPath>
</defs>
</svg>
