<svg width="26" height="25" viewBox="0 0 26 25" fill="none" xmlns="http://www.w3.org/2000/svg">
<path d="M25.6922 12.5014C25.6922 9.217 24.3875 6.06716 22.0651 3.74477C19.7427 1.42238 16.5928 0.117676 13.3085 0.117676C10.0241 0.117676 6.87429 1.42238 4.5519 3.74477C2.22951 6.06716 0.924805 9.217 0.924805 12.5014C0.924805 15.7857 2.22951 18.9355 4.5519 21.2579C6.87429 23.5803 10.0241 24.885 13.3085 24.885C16.5928 24.885 19.7427 23.5803 22.0651 21.2579C24.3875 18.9355 25.6922 15.7857 25.6922 12.5014ZM14.0825 17.9192C14.0825 18.1245 14.0009 18.3213 13.8558 18.4665C13.7106 18.6116 13.5138 18.6932 13.3085 18.6932C13.1032 18.6932 12.9063 18.6116 12.7612 18.4665C12.616 18.3213 12.5345 18.1245 12.5345 17.9192V8.95188L9.21258 12.2754C9.06725 12.4207 8.87013 12.5023 8.6646 12.5023C8.45907 12.5023 8.26196 12.4207 8.11662 12.2754C7.97129 12.13 7.88965 11.9329 7.88965 11.7274C7.88965 11.5218 7.97129 11.3247 8.11662 11.1794L12.7605 6.53552C12.8324 6.46344 12.9178 6.40625 13.0118 6.36723C13.1059 6.32822 13.2067 6.30813 13.3085 6.30813C13.4103 6.30813 13.5111 6.32822 13.6051 6.36723C13.6992 6.40625 13.7846 6.46344 13.8565 6.53552L18.5003 11.1794C18.6457 11.3247 18.7273 11.5218 18.7273 11.7274C18.7273 11.9329 18.6457 12.13 18.5003 12.2754C18.355 12.4207 18.1579 12.5023 17.9524 12.5023C17.7468 12.5023 17.5497 12.4207 17.4044 12.2754L14.0825 8.95188V17.9192Z" fill="#0000AC"/>
</svg>
